<?xml version="1.0" encoding="UTF-8"?>
<svg width="22px" height="22px" viewBox="0 0 22 22" version="1.1" xmlns="http://www.w3.org/2000/svg" xmlns:xlink="http://www.w3.org/1999/xlink">
    <title>Icon / Facebook</title>
    <g id="Welcome" stroke="none" stroke-width="1" fill="none" fill-rule="evenodd">
        <g id="1440-/-C-Login" transform="translate(-483.000000, -325.000000)">
            <g id="Group-8" transform="translate(112.000000, 167.000000)">
                <g id="Group-6" transform="translate(326.000000, 141.000000)">
                    <g id="Group" transform="translate(40.000000, 12.000000)">
                        <rect id="Rectangle" x="0" y="0" width="32" height="32"></rect>
                        <g id="Google__G__Logo" transform="translate(5.000000, 5.000000)" fill-rule="nonzero">
                            <path d="M21.53663,11.2578755 C21.53663,10.5124542 21.4761905,9.76300366 21.3472527,9.02967033 L11.0040293,9.02967033 L11.0040293,13.252381 L16.9271062,13.252381 C16.6813187,14.6142857 15.8915751,15.8190476 14.7351648,16.5846154 L14.7351648,19.3245421 L18.2688645,19.3245421 C20.343956,17.414652 21.53663,14.5941392 21.53663,11.2578755 Z" id="Path" fill="#4285F4"></path>
                            <path d="M11.0040293,21.9717949 C13.9615385,21.9717949 16.4556777,21.0007326 18.2728938,19.3245421 L14.7391941,16.5846154 C13.756044,17.2534799 12.4868132,17.6322344 11.0080586,17.6322344 C8.14725275,17.6322344 5.72161172,15.7021978 4.85128205,13.107326 L1.2047619,13.107326 L1.2047619,15.9318681 C3.06630037,19.6347985 6.85787546,21.9717949 11.0040293,21.9717949 Z" id="Path" fill="#34A853"></path>
                            <path d="M4.84725275,13.107326 C4.38791209,11.7454212 4.38791209,10.270696 4.84725275,8.90879121 L4.84725275,6.08424908 L1.2047619,6.08424908 C-0.350549451,9.18278388 -0.350549451,12.8333333 1.2047619,15.9318681 L4.84725275,13.107326 Z" id="Path" fill="#FBBC04"></path>
                            <path d="M11.0040293,4.37985348 C12.5673993,4.35567766 14.0783883,4.94395604 15.2106227,6.02380952 L15.2106227,6.02380952 L18.3413919,2.89304029 C16.3589744,1.03150183 13.7278388,0.00805860806 11.0040293,0.0402930403 C6.85787546,0.0402930403 3.06630037,2.37728938 1.2047619,6.08424908 L4.84725275,8.90879121 C5.71355311,6.30989011 8.14322344,4.37985348 11.0040293,4.37985348 Z" id="Path" fill="#EA4335"></path>
                        </g>
                    </g>
                </g>
            </g>
        </g>
    </g>
</svg>