<?xml version="1.0" encoding="UTF-8"?>
<svg width="560px" height="428px" viewBox="0 0 560 428" version="1.1" xmlns="http://www.w3.org/2000/svg" xmlns:xlink="http://www.w3.org/1999/xlink">
    <title>Group</title>
    <g id="Page-1" stroke="none" stroke-width="1" fill="none" fill-rule="evenodd">
        <g id="Group" transform="translate(0.570000, 0.540000)">
            <ellipse id="Oval" fill="#000000" fill-rule="nonzero" cx="209.47" cy="308.42" rx="63.11" ry="13.95"></ellipse>
            <line x1="209.47" y1="308.42" x2="174.02" y2="419.37" id="Path" stroke="#000000" stroke-width="4" stroke-linecap="round"></line>
            <line x1="209.47" y1="308.42" x2="244.92" y2="419.37" id="Path" stroke="#000000" stroke-width="4" stroke-linecap="round"></line>
            <line x1="185.66" y1="382.94" x2="225.18" y2="357.6" id="Path" stroke="#000000" stroke-width="2" stroke-linecap="round"></line>
            <line x1="193.6" y1="357.6" x2="233.13" y2="382.94" id="Path" stroke="#000000" stroke-width="2" stroke-linecap="round"></line>
            <path d="M271.58,188.32 C271.42,193.24 271.49,210.47 270.68,217.84" id="Path" stroke="#1F161E" stroke-linecap="round"></path>
            <path d="M362.62,406.14 C362.62,408.51 361.23,423.46 364,424.84 C366.77,426.22 397.22,427.06 398.6,425.67 C399.98,424.28 400.81,421.38 399.6,420.55 C398.39,419.72 386.6,417.37 385,416.26 C383.4,415.15 381.19,409.26 382,406.14" id="Path" fill="#1F161E" fill-rule="nonzero"></path>
            <path d="M271.58,210.71 L288.72,204.56 C287.98,173.29 280.67,103.42 270.29,93.03 C267.85,90.6 219.59,86.36 210.98,86.36 C159.6,86.36 144.36,92.22 140.49,96.1 C128.49,108.1 124.75,163.7 124.75,183.17 C124.75,202.64 179.75,212.74 179.75,212.74 L244.22,217.17 C244.22,217.17 258.36,218.63 270.59,219.35 C270.86,215.6 271.58,210.71 271.58,210.71 Z" id="Path" fill="#03ABE1" fill-rule="nonzero"></path>
            <path d="M322.65,228.84 C327.34,227.45 373.98,219.84 384.14,229.84 C394.3,239.84 426.28,383.21 426.28,386.51 L400.53,386.51 L365.77,311.7" id="Path" fill="#1F161E" fill-rule="nonzero"></path>
            <path d="M152.84,216.09 C151.67,221.94 144.64,228.22 144.64,260.09 C144.64,304.16 180.74,305.09 193.7,305.09 C234.08,305.09 299.41,293.09 303.82,290.89 C306.75,295.79 360.68,405.89 360.93,408.35 L385.76,408.35 C385.76,408.35 370.37,243.63 342.6,224.95 C333.58,218.95 173.55,212.53 152.84,216.09 Z" id="Path" fill="#004093" fill-rule="nonzero"></path>
            <path d="M298.24,183.87 C291.72,183.87 286.34,185.42 271.58,188.32 L270.81,216.56 C284.81,210.92 288.06,203.08 292.12,203.08 C302.26,203.08 307.56,208.31 313.55,208.31 C317.73,208.31 325.25,205.03 325.25,200.57 C325.25,191.23 306.32,183.87 298.24,183.87 Z" id="Path" fill="#F8CDBA" fill-rule="nonzero"></path>
            <path d="M401.99,384.53 C401.99,386.91 400.6,401.85 403.37,403.24 C406.14,404.63 436.59,405.45 437.97,404.07 C439.35,402.69 440.18,399.78 438.97,398.95 C437.76,398.12 425.97,395.76 424.37,394.65 C422.77,393.54 420.56,387.65 421.37,384.53" id="Path" fill="#1F161E" fill-rule="nonzero"></path>
            <path d="M220.07,93.01 C220.07,96.78 198.18,96.89 198.18,93.01 L198.18,62.35 L220.07,62.35 L220.07,93.01 Z" id="Path" fill="#F8CDBA" fill-rule="nonzero"></path>
            <path d="M212.94,72.46 C210.94,72.46 198.18,78.1 198.18,81.25 L198.18,64.61 C201.36,64.61 212.94,72.46 212.94,72.46 Z" id="Path" fill="#1F161E" fill-rule="nonzero"></path>
            <circle id="Oval" fill="#F8CDBA" fill-rule="nonzero" cx="217.17" cy="47.26" r="26.5"></circle>
            <path d="M244.52,26.46 C241.24,31.67 234.38,34.06 226.95,34.06 C220.62,34.06 211.4,32.22 204.84,35.96 C201.29,37.96 197.22,42.51 196.4,51.62 C196.4,53.18 194.63,59.23 194.63,61.18 C194.63,62.51 193.13,63.38 190.63,63.38 C189.34,63.38 186.79,61.29 186.79,58.1 C186.79,54.41 188.26,53.1 188.26,49.97 C188.26,46.84 184.43,43.83 184.43,35.13 C184.43,22.6 192.43,14.88 198.09,14.88 C203.25,14.88 204.87,16.08 205.52,16.59 C205.52,5.2 220.52,2.84217094e-14 226.47,2.84217094e-14 C233.27,2.84217094e-14 236.47,2.79 236.47,6.34 C236.47,12 233.77,16.81 232.4,17.89 C235.501011,15.1003563 239.528894,13.5640577 243.7,13.58 C251.49,13.58 254.11,18.7 254.11,22.2 C254.11,29.81 244.98,36.86 241.58,36.86 C240.724682,35.05031 239.721267,33.3144021 238.58,31.67" id="Path" fill="#1F161E" fill-rule="nonzero"></path>
            <circle id="Oval" fill="#F8CDBA" fill-rule="nonzero" cx="197.22" cy="50.76" r="5.65"></circle>
            <ellipse id="Oval" fill="#FA9E9F" fill-rule="nonzero" cx="243.93" cy="49.84" rx="4.38" ry="2.28"></ellipse>
            <ellipse id="Oval" fill="#FA9E9F" fill-rule="nonzero" cx="216.38" cy="49.84" rx="4.38" ry="2.28"></ellipse>
            <path d="M233.23,45.11 C234.05,46.28 238.23,51.19 233.82,53.18" id="Path" stroke="#1F161E" stroke-linecap="round"></path>
            <path d="M224.99,58.91 C223.67,58.91 221.64,57.27 220.57,55.8" id="Path" stroke="#1F161E" stroke-linecap="round"></path>
            <path d="M259.93,130.08 C261.93,134.33 271.58,175.33 271.58,188.32" id="Path" stroke="#1F161E" stroke-linecap="round"></path>
            <path d="M124.75,179.87 C124.75,225.96 125.18,239.33 143.68,239.33 C186.32,239.33 250.78,204.33 262.27,204.33 C272.42,204.33 277.72,209.57 283.71,209.57 C287.88,209.57 295.4,206.28 295.4,201.83 C295.4,192.48 276.47,185.12 268.4,185.12 C250.23,185.12 177.72,202.64 175.95,202.64 C174.18,202.64 171.2,201.87 171.2,198.89 C171.2,193.48 174.74,180.98 175.2,179.89 L124.75,179.87 Z" id="Path" fill="#F8CDBA" fill-rule="nonzero"></path>
            <path d="M185.85,139.67 C184.63,143.18 175.12,179.45 174.02,183.87" id="Path" stroke="#1F161E" stroke-linecap="round"></path>
            <rect id="Rectangle" fill="#FF7202" fill-rule="nonzero" transform="translate(526.240547, 321.533652) rotate(165.270000) translate(-526.240547, -321.533652) " x="521.120547" y="215.733652" width="10.24" height="211.6" rx="5.12"></rect>
            <rect id="Rectangle" fill="#FF7202" fill-rule="nonzero" transform="translate(464.629759, 321.542024) rotate(14.730000) translate(-464.629759, -321.542024) " x="459.509759" y="215.742024" width="10.24" height="211.6" rx="5.12"></rect>
            <rect id="Rectangle" fill="#FFD200" fill-rule="nonzero" transform="translate(393.981360, 321.540789) rotate(14.730000) translate(-393.981360, -321.540789) " x="388.86136" y="215.740789" width="10.24" height="211.6" rx="5.12"></rect>
            <rect id="Rectangle" fill="#FFD200" fill-rule="nonzero" transform="translate(455.145900, 317.672700) rotate(165.547572) translate(-455.145900, -317.672700) " x="450.017203" y="211.692993" width="10.2573932" height="211.959415" rx="5.12"></rect>
            <rect id="Rectangle" fill="#FF7202" fill-rule="nonzero" transform="translate(105.560355, 321.545859) rotate(14.730000) translate(-105.560355, -321.545859) " x="100.440355" y="215.745859" width="10.24" height="211.6" rx="5.12"></rect>
            <rect id="Rectangle" fill="#FF7202" fill-rule="nonzero" transform="translate(166.301359, 321.546278) rotate(165.270000) translate(-166.301359, -321.546278) " x="161.181359" y="215.746278" width="10.24" height="211.6" rx="5.12"></rect>
            <rect id="Rectangle" fill="#FFD200" fill-rule="nonzero" x="27" y="209.6" width="504.23" height="15.15" rx="4.53"></rect>
            <rect id="Rectangle" fill="#FFD200" fill-rule="nonzero" transform="translate(32.385434, 321.548793) rotate(14.730000) translate(-32.385434, -321.548793) " x="27.2654335" y="215.748793" width="10.24" height="211.6" rx="5.12"></rect>
            <rect id="Rectangle" fill="#FFD200" fill-rule="nonzero" transform="translate(93.125951, 321.546668) rotate(165.270000) translate(-93.125951, -321.546668) " x="88.0059514" y="215.746668" width="10.24" height="211.6" rx="5.12"></rect>
            <path d="M397.71,209.6 L305.2,209.6 L321.96,151.96 C322.819806,149.10373 325.457167,147.1542 328.44,147.17 L406.94,147.17 C409.030739,147.136254 411.014516,148.092275 412.29076,149.748635 C413.567005,151.404995 413.985667,153.566955 413.42,155.58 L397.71,209.6 Z" id="Path" fill="#5AE472" fill-rule="nonzero"></path>
            <circle id="Oval" fill="#FFFFFF" fill-rule="nonzero" cx="362.81" cy="178.38" r="5.66"></circle>
            <rect id="Rectangle" fill="#5AE472" fill-rule="nonzero" x="251.28" y="205.55" width="64.91" height="4.05"></rect>
        </g>
    </g>
</svg>