<?xml version="1.0" encoding="UTF-8"?>
<svg width="179px" height="40px" viewBox="0 0 179 40" version="1.1" xmlns="http://www.w3.org/2000/svg" xmlns:xlink="http://www.w3.org/1999/xlink">
    <title>Logo_goodfood</title>
    <g id="Welcome" stroke="none" stroke-width="1" fill="none" fill-rule="evenodd">
        <g id="1440-/-C-Login" transform="translate(-40.000000, -40.000000)" fill-rule="nonzero">
            <g id="Group" transform="translate(40.000000, 40.000000)">
                <path d="M10.7108238,9.17522124 C16.7037848,9.17522124 21.4641509,13.8477876 21.4641509,19.7097345 C21.4641509,25.5292035 16.7037848,30.2867257 10.7108238,30.2867257 C4.76036615,30.2867257 0,25.5292035 0,19.7097345 C0,13.8477876 4.76036615,9.17522124 10.7108238,9.17522124 Z M10.7108238,14.1876106 C7.65058846,14.1876106 5.14289557,16.7362832 5.14289557,19.7097345 C5.14289557,22.7256637 7.65058846,25.2743363 10.7108238,25.2743363 C13.8135625,25.2743363 16.3212554,22.7256637 16.3212554,19.7097345 C16.3212554,16.7362832 13.8135625,14.1876106 10.7108238,14.1876106 Z" id="Shape" fill="#FFD200"></path>
                <path d="M34.7960097,9.17522124 C40.7889707,9.17522124 45.5493368,13.8477876 45.5493368,19.7097345 C45.5493368,25.5292035 40.7889707,30.2867257 34.7960097,30.2867257 C28.845552,30.2867257 24.0851859,25.5292035 24.0851859,19.7097345 C24.0851859,13.8477876 28.845552,9.17522124 34.7960097,9.17522124 Z M34.7960097,14.1876106 C31.7357743,14.1876106 29.2280814,16.7362832 29.2280814,19.7097345 C29.2280814,22.7256637 31.7357743,25.2743363 34.7960097,25.2743363 C37.8987484,25.2743363 40.4064412,22.7256637 40.4064412,19.7097345 C40.4064412,16.7362832 37.8987484,14.1876106 34.7960097,14.1876106 Z" id="Shape" fill="#5AE472"></path>
                <path d="M58.1728078,9.17522124 C64.1657687,9.17522124 68.9261349,13.8477876 68.9261349,19.7097345 C68.9261349,25.5292035 64.1657687,30.2867257 58.1728078,30.2867257 C52.2223501,30.2867257 47.4619839,25.5292035 47.4619839,19.7097345 C47.4619839,13.8477876 52.2223501,9.17522124 58.1728078,9.17522124 Z M58.1728078,14.1876106 C55.1125724,14.1876106 52.6048795,16.7362832 52.6048795,19.7097345 C52.6048795,22.7256637 55.1125724,25.2743363 58.1728078,25.2743363 C61.2755464,25.2743363 63.7832393,22.7256637 63.7832393,19.7097345 C63.7832393,16.7362832 61.2755464,14.1876106 58.1728078,14.1876106 Z" id="Shape" fill="#FB217A"></path>
                <path d="M81.5496058,9.17522124 C87.5425668,9.17522124 92.3029329,13.8477876 92.3029329,19.7097345 C92.3029329,25.5292035 87.5425668,30.2867257 81.5496058,30.2867257 C75.5991481,30.2867257 70.838782,25.5292035 70.838782,19.7097345 C70.838782,13.8477876 75.5991481,9.17522124 81.5496058,9.17522124 Z M81.5496058,14.1876106 C78.4893704,14.1876106 75.9816776,16.7362832 75.9816776,19.7097345 C75.9816776,22.7256637 78.4893704,25.2743363 81.5496058,25.2743363 C84.6523445,25.2743363 87.1600374,22.7256637 87.1600374,19.7097345 C87.1600374,16.7362832 84.6523445,14.1876106 81.5496058,14.1876106 Z" id="Shape" fill="#03ABE1"></path>
                <path d="M167.97292,9.17522124 C173.965881,9.17522124 178.726247,13.8477876 178.726247,19.7097345 C178.726247,25.5292035 173.965881,30.2867257 167.97292,30.2867257 C162.022462,30.2867257 157.262096,25.5292035 157.262096,19.7097345 C157.262096,13.8477876 162.022462,9.17522124 167.97292,9.17522124 Z M167.97292,14.1876106 C164.912684,14.1876106 162.404992,16.7362832 162.404992,19.7097345 C162.404992,22.7256637 164.912684,25.2743363 167.97292,25.2743363 C171.075659,25.2743363 173.583351,22.7256637 173.583351,19.7097345 C173.583351,16.7362832 171.075659,14.1876106 167.97292,14.1876106 Z" id="Shape-Copy" fill="#FFD200"></path>
                <path d="M121.219324,9.17522124 C127.212285,9.17522124 131.972651,13.8477876 131.972651,19.7097345 C131.972651,25.5292035 127.212285,30.2867257 121.219324,30.2867257 C115.268866,30.2867257 110.5085,25.5292035 110.5085,19.7097345 C110.5085,13.8477876 115.268866,9.17522124 121.219324,9.17522124 Z M121.219324,14.1876106 C118.159088,14.1876106 115.651395,16.7362832 115.651395,19.7097345 C115.651395,22.7256637 118.159088,25.2743363 121.219324,25.2743363 C124.322062,25.2743363 126.829755,22.7256637 126.829755,19.7097345 C126.829755,16.7362832 124.322062,14.1876106 121.219324,14.1876106 Z" id="Shape" fill="#5AE472"></path>
                <path d="M144.596122,9.17522124 C150.589083,9.17522124 155.349449,13.8477876 155.349449,19.7097345 C155.349449,25.5292035 150.589083,30.2867257 144.596122,30.2867257 C138.645664,30.2867257 133.885298,25.5292035 133.885298,19.7097345 C133.885298,13.8477876 138.645664,9.17522124 144.596122,9.17522124 Z M144.596122,14.1876106 C141.535886,14.1876106 139.028194,16.7362832 139.028194,19.7097345 C139.028194,22.7256637 141.535886,25.2743363 144.596122,25.2743363 C147.69886,25.2743363 150.206553,22.7256637 150.206553,19.7097345 C150.206553,16.7362832 147.69886,14.1876106 144.596122,14.1876106 Z" id="Shape" fill="#03ABE1"></path>
                <polygon id="Path-Copy" fill="#5AE472" points="85.3607323 -7.54558657e-15 90.5886344 -7.54558657e-15 90.5886344 31.4336283 85.3607323 31.4336283"></polygon>
                <path d="M90.5894204,13.9621741 L90.5890988,25.4517464 C89.3555627,27.3323407 87.5305172,28.8042981 85.3612319,29.6085872 L85.3618691,23.7735565 C86.468277,22.7488877 87.1600374,21.2937587 87.1600374,19.7097345 C87.1600374,18.1480205 86.468277,16.703484 85.3618691,15.6838442 L85.3612319,9.84290888 C87.5307057,10.6359496 89.3558799,12.0904407 90.5894204,13.9621741 Z" id="Combined-Shape" fill="#004093"></path>
                <polygon id="Path-Copy-2" fill="#FF7202" points="171.784046 -7.54558657e-15 177.011948 -7.54558657e-15 177.011948 31.4336283 171.784046 31.4336283"></polygon>
                <path d="M177.012734,13.9621741 L177.012413,25.4517464 C175.778877,27.3323407 173.953831,28.8042981 171.784546,29.6085872 L171.785183,23.7735565 C172.891591,22.7488877 173.583351,21.2937587 173.583351,19.7097345 C173.583351,18.1480205 172.891591,16.703484 171.785183,15.6838442 L171.784546,9.84290888 C173.95402,10.6359496 175.779194,12.0904407 177.012734,13.9621741 Z" id="Combined-Shape" fill="#FB217A"></path>
                <polygon id="Path" fill="#FFD200" points="95.6323557 15.2778761 95.6323557 10.2654867 108.340833 10.2654867 108.340833 15.2778761"></polygon>
                <path d="M98.465907,6.54159292 C98.465907,2.59115044 100.336051,-1.00607821e-14 104.713888,-1.00607821e-14 C105.765843,-1.00607821e-14 107.317803,0.142772861 108.354878,0.428318584 L108.624188,0.509734513 L108.624188,5.13982301 C108.624188,5.13982301 107.136574,4.92743363 106.158999,4.92743363 C104.599568,4.92743363 103.753344,5.48181789 103.696838,7.43172118 L103.693809,7.6460177 L103.693809,31.4336283 L98.465907,31.4336283 L98.465907,6.54159292 Z" id="Combined-Shape" fill="#FF7202"></path>
                <path d="M103.692907,10.2651327 L103.692907,15.2771327 L98.465907,15.2771327 L98.465907,10.2651327 L103.692907,10.2651327 Z" id="Combined-Shape" fill="#FB217A"></path>
                <path d="M14.7061311,8.84955752 L19.9340333,8.84955752 L19.9340333,27.5823009 C19.9340333,38.3716814 13.0485036,39.7734513 9.09569961,39.7734513 C5.2865051,39.7734513 1.97201118,37.8370316 0.0860276659,34.9380203 L-2.5166991e-15,34.8035398 L4.80286942,32.7221239 C5.82294788,33.9539823 7.39556884,34.7610619 9.09569961,34.7610619 C12.1650755,34.7610619 14.6521335,33.2645677 14.7052637,28.750054 L14.7061311,28.6017699 L14.7061311,8.84955752 Z" id="Combined-Shape" fill="#FF7202"></path>
                <path d="M19.9340923,14.2507472 L19.9340923,25.1613646 C18.7280789,27.1375428 16.8831189,28.6954602 14.6681837,29.5533514 C14.6894038,29.2964632 14.7019806,29.0290206 14.7052637,28.750054 L14.7061311,28.6017699 L14.7068981,23.5955075 C15.7055772,22.5837743 16.3212554,21.2041138 16.3212554,19.7097345 C16.3212554,18.2364939 15.7056533,16.8675303 14.7070834,15.8611715 L14.70626,9.91199734 C16.9042623,10.7610155 18.7349963,12.2942749 19.9340923,14.2507472 Z" id="Combined-Shape" fill="#FB217A"></path>
            </g>
        </g>
    </g>
</svg>